<?xml version="1.0" encoding="utf-8"?>
<svg
  xmlns="http://www.w3.org/2000/svg"
  viewBox="0 0 80 100"
>
  <g>
    <path
      fill="#3b82f6"
      d="M5,5 L5,95 C5,97.5 7,99 10,99 L70,99 C73,99 75,97.5 75,95 L75,25 L55,5 L10,5 C7,5 5,7.5 5,10 Z
         M55,5 L55,20 C55,23 57,25 60,25 L75,25 Z"
    />
    <g transform="translate(-15, -6) scale(0.95)">
      <path
        fill="#f3f4f6"
        d="M57.98,18.03
        c2.56,0,4.63,2.07,4.63,4.63c0,1.69-0.91,3.17-2.26,3.98c0.02,0.11,0.03,0.22,0.03,0.34v3.75c2.02-0.18,4.1-0.06,5.74,0.41
        c0.86,0.24,1.75,0.37,2.47,0.64c13.61,5.02,2.02,13.27-5.53,6.96c-1.09-0.91-1.81-2.11-2.1-3.63c-0.16-0.18-0.36-0.35-0.58-0.48
        v23.59c3.39-2.07,3.88-3.3,1.97-10.62c2.74,1.66,5.12,3.38,5.76,6.16c1.19,5.16-1.59,7.42-5.06,9.25
        c-0.87,0.46-1.78,0.88-2.68,1.32v23.75c0.67-0.39,1.33-0.79,1.97-1.22c0-2.99,0-5.98,0-8.97c2.69,1.9,5.15,3.68,5.83,5.04
        c1.22,2.46-0.29,5.27-2.46,6.65c-0.3,0.19-0.61,0.36-0.93,0.51c-1.26,0.59-2.78,1.3-4.42,2.08v11.89c0,1.25-1.01,2.26-2.26,2.26
        c-1.25,0-2.26-1.01-2.26-2.26v-9.64c-3.69,1.93-7.25,4.08-9.13,6.1c0.83-4.99,4.73-7.54,9.13-9.96V67.05
        c-2.33,1.98-3.58,4.81-1.97,9.83c-4.25-3.51-8.45-8.06-2.88-12.5c1.83-1.46,3.44-2.57,4.85-3.47V34.69
        c-0.85,0.49-1.57,1.28-1.94,2.43c-0.58,1.81-0.39,3.16,0.32,4.34l-0.35,6.1c-0.86-0.49-1.66-0.97-2.32-1.45
        c-2.32-1.6-3.46-3.82-2.78-6.98c0.59-2.79,2.53-4.68,4.87-6.23c0.6-0.4,1.24-0.75,1.93-1.05c0.09-0.04,0.19-0.08,0.29-0.12v-4.75
        c0-0.06,0-0.13,0.01-0.19c-1.5-0.77-2.52-2.33-2.52-4.12C53.35,20.1,55.42,18.03,57.98,18.03L57.98,18.03z"
      />
      <circle cx="69" cy="35" r="1.2" fill="#3b82f6"/>
    </g>
  </g>
</svg>
